<?xml version="1.0" encoding="UTF-8"?>
<!DOCTYPE svg PUBLIC "-//W3C//DTD SVG 1.1//EN" "http://www.w3.org/Graphics/SVG/1.1/DTD/svg11.dtd">
<svg xmlns="http://www.w3.org/2000/svg" version="1.1" width="2109px" height="627px" style="shape-rendering:geometricPrecision; text-rendering:geometricPrecision; image-rendering:optimizeQuality; fill-rule:evenodd; clip-rule:evenodd" xmlns:xlink="http://www.w3.org/1999/xlink">
<g><path style="opacity:1" fill="#3264af" d="M 1534.5,-0.5 C 1540.17,-0.5 1545.83,-0.5 1551.5,-0.5C 1577.09,2.7895 1592.09,17.1228 1596.5,42.5C 1597.21,55.6829 1593.87,67.6829 1586.5,78.5C 1574.21,91.7177 1558.88,97.7177 1540.5,96.5C 1511.15,93.6509 1495.48,77.4842 1493.5,48C 1495.38,21.6663 1509.05,5.49966 1534.5,-0.5 Z"/></g>
<g><path style="opacity:1" fill="#699fc7" d="M 1551.5,-0.5 C 1566.5,-0.5 1581.5,-0.5 1596.5,-0.5C 1596.5,13.8333 1596.5,28.1667 1596.5,42.5C 1592.09,17.1228 1577.09,2.7895 1551.5,-0.5 Z"/></g>
<g><path style="opacity:0.992" fill="#6ea3c9" d="M 1596.5,-0.5 C 1600.17,-0.5 1603.83,-0.5 1607.5,-0.5C 1607.5,32.1667 1607.5,64.8333 1607.5,97.5C 1600.5,97.5 1593.5,97.5 1586.5,97.5C 1586.5,91.1667 1586.5,84.8333 1586.5,78.5C 1593.87,67.6829 1597.21,55.6829 1596.5,42.5C 1596.5,28.1667 1596.5,13.8333 1596.5,-0.5 Z"/></g>
<g><path style="opacity:0.992" fill="#73a6cb" d="M 1607.5,-0.5 C 1614.83,-0.5 1622.17,-0.5 1629.5,-0.5C 1629.5,32.1667 1629.5,64.8333 1629.5,97.5C 1622.17,97.5 1614.83,97.5 1607.5,97.5C 1607.5,64.8333 1607.5,32.1667 1607.5,-0.5 Z"/></g>
<g><path style="opacity:0.992" fill="#79aacd" d="M 1629.5,-0.5 C 1636.5,-0.5 1643.5,-0.5 1650.5,-0.5C 1650.5,32.1667 1650.5,64.8333 1650.5,97.5C 1643.5,97.5 1636.5,97.5 1629.5,97.5C 1629.5,64.8333 1629.5,32.1667 1629.5,-0.5 Z"/></g>
<g><path style="opacity:0.992" fill="#7eadcf" d="M 1650.5,-0.5 C 1654.83,-0.5 1659.17,-0.5 1663.5,-0.5C 1663.5,32.1667 1663.5,64.8333 1663.5,97.5C 1659.17,97.5 1654.83,97.5 1650.5,97.5C 1650.5,64.8333 1650.5,32.1667 1650.5,-0.5 Z"/></g>
<g><path style="opacity:0.992" fill="#81afd0" d="M 1663.5,-0.5 C 1667.5,-0.5 1671.5,-0.5 1675.5,-0.5C 1675.5,32.1667 1675.5,64.8333 1675.5,97.5C 1671.5,97.5 1667.5,97.5 1663.5,97.5C 1663.5,64.8333 1663.5,32.1667 1663.5,-0.5 Z"/></g>
<g><path style="opacity:0.992" fill="#86b2d2" d="M 1675.5,-0.5 C 1682.5,-0.5 1689.5,-0.5 1696.5,-0.5C 1696.5,32.1667 1696.5,64.8333 1696.5,97.5C 1689.5,97.5 1682.5,97.5 1675.5,97.5C 1675.5,64.8333 1675.5,32.1667 1675.5,-0.5 Z"/></g>
<g><path style="opacity:0.992" fill="#8db6d4" d="M 1696.5,-0.5 C 1703.5,-0.5 1710.5,-0.5 1717.5,-0.5C 1717.5,32.1667 1717.5,64.8333 1717.5,97.5C 1710.5,97.5 1703.5,97.5 1696.5,97.5C 1696.5,64.8333 1696.5,32.1667 1696.5,-0.5 Z"/></g>
<g><path style="opacity:0.992" fill="#92bad6" d="M 1717.5,-0.5 C 1724.5,-0.5 1731.5,-0.5 1738.5,-0.5C 1738.5,32.1667 1738.5,64.8333 1738.5,97.5C 1731.5,97.5 1724.5,97.5 1717.5,97.5C 1717.5,64.8333 1717.5,32.1667 1717.5,-0.5 Z"/></g>
<g><path style="opacity:0.992" fill="#99bed9" d="M 1738.5,-0.5 C 1746.5,-0.5 1754.5,-0.5 1762.5,-0.5C 1762.5,32.1667 1762.5,64.8333 1762.5,97.5C 1754.5,97.5 1746.5,97.5 1738.5,97.5C 1738.5,64.8333 1738.5,32.1667 1738.5,-0.5 Z"/></g>
<g><path style="opacity:0.992" fill="#9fc2db" d="M 1762.5,-0.5 C 1769.5,-0.5 1776.5,-0.5 1783.5,-0.5C 1783.5,32.1667 1783.5,64.8333 1783.5,97.5C 1776.5,97.5 1769.5,97.5 1762.5,97.5C 1762.5,64.8333 1762.5,32.1667 1762.5,-0.5 Z"/></g>
<g><path style="opacity:0.992" fill="#a5c5dd" d="M 1783.5,-0.5 C 1789.5,-0.5 1795.5,-0.5 1801.5,-0.5C 1801.5,32.1667 1801.5,64.8333 1801.5,97.5C 1795.5,97.5 1789.5,97.5 1783.5,97.5C 1783.5,64.8333 1783.5,32.1667 1783.5,-0.5 Z"/></g>
<g><path style="opacity:0.992" fill="#aac9df" d="M 1801.5,-0.5 C 1809.5,-0.5 1817.5,-0.5 1825.5,-0.5C 1825.5,32.1667 1825.5,64.8333 1825.5,97.5C 1817.5,97.5 1809.5,97.5 1801.5,97.5C 1801.5,64.8333 1801.5,32.1667 1801.5,-0.5 Z"/></g>
<g><path style="opacity:0.992" fill="#b0cde1" d="M 1825.5,-0.5 C 1830.5,-0.5 1835.5,-0.5 1840.5,-0.5C 1840.5,32.1667 1840.5,64.8333 1840.5,97.5C 1835.5,97.5 1830.5,97.5 1825.5,97.5C 1825.5,64.8333 1825.5,32.1667 1825.5,-0.5 Z"/></g>
<g><path style="opacity:0.992" fill="#b4cfe3" d="M 1840.5,-0.5 C 1843.83,-0.5 1847.17,-0.5 1850.5,-0.5C 1850.5,32.1667 1850.5,64.8333 1850.5,97.5C 1847.17,97.5 1843.83,97.5 1840.5,97.5C 1840.5,64.8333 1840.5,32.1667 1840.5,-0.5 Z"/></g>
<g><path style="opacity:0.992" fill="#b8d2e4" d="M 1850.5,-0.5 C 1857.5,-0.5 1864.5,-0.5 1871.5,-0.5C 1871.5,32.1667 1871.5,64.8333 1871.5,97.5C 1864.5,97.5 1857.5,97.5 1850.5,97.5C 1850.5,64.8333 1850.5,32.1667 1850.5,-0.5 Z"/></g>
<g><path style="opacity:0.992" fill="#bdd5e6" d="M 1871.5,-0.5 C 1876.5,-0.5 1881.5,-0.5 1886.5,-0.5C 1886.5,32.1667 1886.5,64.8333 1886.5,97.5C 1881.5,97.5 1876.5,97.5 1871.5,97.5C 1871.5,64.8333 1871.5,32.1667 1871.5,-0.5 Z"/></g>
<g><path style="opacity:0.992" fill="#c3d9e8" d="M 1886.5,-0.5 C 1895.5,-0.5 1904.5,-0.5 1913.5,-0.5C 1913.5,32.1667 1913.5,64.8333 1913.5,97.5C 1904.5,97.5 1895.5,97.5 1886.5,97.5C 1886.5,64.8333 1886.5,32.1667 1886.5,-0.5 Z"/></g>
<g><path style="opacity:0.992" fill="#cbddeb" d="M 1913.5,-0.5 C 1921.83,-0.5 1930.17,-0.5 1938.5,-0.5C 1938.5,32.1667 1938.5,64.8333 1938.5,97.5C 1930.17,97.5 1921.83,97.5 1913.5,97.5C 1913.5,64.8333 1913.5,32.1667 1913.5,-0.5 Z"/></g>
<g><path style="opacity:0.992" fill="#d1e2ee" d="M 1938.5,-0.5 C 1945.5,-0.5 1952.5,-0.5 1959.5,-0.5C 1959.5,32.1667 1959.5,64.8333 1959.5,97.5C 1952.5,97.5 1945.5,97.5 1938.5,97.5C 1938.5,64.8333 1938.5,32.1667 1938.5,-0.5 Z"/></g>
<g><path style="opacity:0.992" fill="#d7e5f0" d="M 1959.5,-0.5 C 1965.83,-0.5 1972.17,-0.5 1978.5,-0.5C 1978.5,32.1667 1978.5,64.8333 1978.5,97.5C 1972.17,97.5 1965.83,97.5 1959.5,97.5C 1959.5,64.8333 1959.5,32.1667 1959.5,-0.5 Z"/></g>
<g><path style="opacity:0.992" fill="#dde9f2" d="M 1978.5,-0.5 C 1985.83,-0.5 1993.17,-0.5 2000.5,-0.5C 2000.5,32.1667 2000.5,64.8333 2000.5,97.5C 1993.17,97.5 1985.83,97.5 1978.5,97.5C 1978.5,64.8333 1978.5,32.1667 1978.5,-0.5 Z"/></g>
<g><path style="opacity:0.992" fill="#e1ecf4" d="M 2000.5,-0.5 C 2004.17,-0.5 2007.83,-0.5 2011.5,-0.5C 2011.5,32.1667 2011.5,64.8333 2011.5,97.5C 2007.83,97.5 2004.17,97.5 2000.5,97.5C 2000.5,64.8333 2000.5,32.1667 2000.5,-0.5 Z"/></g>
<g><path style="opacity:0.992" fill="#e5eef5" d="M 2011.5,-0.5 C 2016.17,-0.5 2020.83,-0.5 2025.5,-0.5C 2025.5,32.1667 2025.5,64.8333 2025.5,97.5C 2020.83,97.5 2016.17,97.5 2011.5,97.5C 2011.5,64.8333 2011.5,32.1667 2011.5,-0.5 Z"/></g>
<g><path style="opacity:0.992" fill="#eaf1f7" d="M 2025.5,-0.5 C 2032.17,-0.5 2038.83,-0.5 2045.5,-0.5C 2045.5,32.1667 2045.5,64.8333 2045.5,97.5C 2038.83,97.5 2032.17,97.5 2025.5,97.5C 2025.5,64.8333 2025.5,32.1667 2025.5,-0.5 Z"/></g>
<g><path style="opacity:0.991" fill="#f0f5f9" d="M 2045.5,-0.5 C 2052.83,-0.5 2060.17,-0.5 2067.5,-0.5C 2067.5,31.8333 2067.5,64.1667 2067.5,96.5C 2060.19,97.2484 2052.86,97.5817 2045.5,97.5C 2045.5,64.8333 2045.5,32.1667 2045.5,-0.5 Z"/></g>
<g><path style="opacity:0.987" fill="#f5f9fb" d="M 2067.5,-0.5 C 2068.17,-0.5 2068.83,-0.5 2069.5,-0.5C 2076.46,1.15365 2082.79,4.15365 2088.5,8.5C 2088.5,34.8333 2088.5,61.1667 2088.5,87.5C 2082.34,92.228 2075.34,95.228 2067.5,96.5C 2067.5,64.1667 2067.5,31.8333 2067.5,-0.5 Z"/></g>
<g><path style="opacity:0.954" fill="#fbfcfd" d="M 2088.5,8.5 C 2099.16,15.8187 2105.83,25.8187 2108.5,38.5C 2108.5,45.1667 2108.5,51.8333 2108.5,58.5C 2105.55,70.7424 2098.88,80.4091 2088.5,87.5C 2088.5,61.1667 2088.5,34.8333 2088.5,8.5 Z"/></g>
<g><path style="opacity:0.985" fill="#3264af" d="M 1300.5,17.5 C 1334.79,15.2686 1368.46,18.7686 1401.5,28C 1409.32,30.608 1416.99,33.608 1424.5,37C 1425.02,37.5613 1425.36,38.228 1425.5,39C 1418.32,63.0411 1411.65,87.2078 1405.5,111.5C 1375.4,97.4473 1343.74,91.2807 1310.5,93C 1292.56,93.5185 1278.06,100.685 1267,114.5C 1258.44,133.43 1262.61,148.93 1279.5,161C 1288.52,166.509 1297.85,171.509 1307.5,176C 1324.83,183 1342.17,190 1359.5,197C 1381.38,206.688 1400.55,220.188 1417,237.5C 1439.36,266.626 1446.7,299.293 1439,335.5C 1429.23,375.945 1405.06,404.111 1366.5,420C 1302.4,441.653 1238.74,440.32 1175.5,416C 1171.14,414.159 1167.14,411.826 1163.5,409C 1169.74,384.209 1175.74,359.375 1181.5,334.5C 1213.37,349.884 1247.04,358.217 1282.5,359.5C 1295.9,359.696 1308.9,357.53 1321.5,353C 1343.83,342.511 1351.66,325.345 1345,301.5C 1339.5,290.667 1331.33,282.5 1320.5,277C 1299.18,267.172 1277.51,258.172 1255.5,250C 1231.27,239.475 1210.1,224.641 1192,205.5C 1168.9,175.512 1162.57,142.179 1173,105.5C 1183.9,73.2617 1204.73,49.7617 1235.5,35C 1256.32,25.5482 1277.98,19.7149 1300.5,17.5 Z"/></g>
<g><path style="opacity:0.986" fill="#3264af" d="M -0.5,428.5 C -0.5,423.167 -0.5,417.833 -0.5,412.5C 8.36366,283.019 16.697,153.352 24.5,23.5C 65.5054,23.1668 106.505,23.5001 147.5,24.5C 163.798,78.6919 179.632,133.025 195,187.5C 204.952,225.971 213.952,264.638 222,303.5C 232.185,263.098 242.851,222.765 254,182.5C 270.608,129.512 287.108,76.512 303.5,23.5C 344.22,22.8425 384.72,23.5091 425,25.5C 432.184,159.837 439.351,294.17 446.5,428.5C 416.5,428.5 386.5,428.5 356.5,428.5C 351.21,321.894 347.71,215.228 346,108.5C 336.145,146.732 325.478,184.732 314,222.5C 293.011,288.792 272.177,355.126 251.5,421.5C 227.176,422.5 202.842,422.833 178.5,422.5C 162.651,363.104 146.484,303.771 130,244.5C 118.518,199.422 108.185,154.088 99,108.5C 95.4063,215.229 90.5729,321.896 84.5,428.5C 56.1667,428.5 27.8333,428.5 -0.5,428.5 Z"/></g>
<g><path style="opacity:0.986" fill="#3264af" d="M 609.5,23.5 C 650.22,22.8425 690.72,23.5091 731,25.5C 772.734,159.536 814.568,293.536 856.5,427.5C 823.173,428.5 789.84,428.833 756.5,428.5C 746.498,394.161 736.498,359.827 726.5,325.5C 687.832,325.333 649.165,325.5 610.5,326C 600.624,360.004 591.29,394.17 582.5,428.5C 550.5,428.5 518.5,428.5 486.5,428.5C 527.655,293.546 568.655,158.546 609.5,23.5 Z M 665.5,93.5 C 666.586,93.62 667.253,94.2867 667.5,95.5C 680.145,149.08 694.811,202.08 711.5,254.5C 682.172,255.667 652.839,255.833 623.5,255C 640.703,202.021 654.703,148.188 665.5,93.5 Z"/></g>
<g><path style="opacity:0.988" fill="#3264af" d="M 824.5,23.5 C 928.5,23.5 1032.5,23.5 1136.5,23.5C 1136.5,49.5 1136.5,75.5 1136.5,101.5C 1099.83,101.5 1063.17,101.5 1026.5,101.5C 1026.5,210.5 1026.5,319.5 1026.5,428.5C 995.833,428.5 965.167,428.5 934.5,428.5C 934.5,319.5 934.5,210.5 934.5,101.5C 897.833,101.5 861.167,101.5 824.5,101.5C 824.5,75.5 824.5,49.5 824.5,23.5 Z"/></g>
<g><path style="opacity:0.9" fill="#659cc5" d="M 1586.5,78.5 C 1586.5,84.8333 1586.5,91.1667 1586.5,97.5C 1570.99,97.8295 1555.66,97.4962 1540.5,96.5C 1558.88,97.7177 1574.21,91.7177 1586.5,78.5 Z"/></g>
<g><path style="opacity:0.988" fill="#3264af" d="M 2108.5,240.5 C 2108.5,303.167 2108.5,365.833 2108.5,428.5C 2078.5,428.5 2048.5,428.5 2018.5,428.5C 2018.67,370.832 2018.5,313.166 2018,255.5C 2017.05,240.988 2012.72,227.655 2005,215.5C 1987.53,199.534 1969.03,198.367 1949.5,212C 1936.66,223.185 1930.49,237.352 1931,254.5C 1930.5,312.499 1930.33,370.499 1930.5,428.5C 1900.83,428.5 1871.17,428.5 1841.5,428.5C 1841.67,373.832 1841.5,319.166 1841,264.5C 1841.88,246.203 1837.21,229.536 1827,214.5C 1809.01,199.056 1790.51,198.556 1771.5,213C 1763.57,220.689 1758.07,229.856 1755,240.5C 1753.52,303.129 1753.02,365.796 1753.5,428.5C 1723.5,428.5 1693.5,428.5 1663.5,428.5C 1663.67,353.499 1663.5,278.499 1663,203.5C 1662.74,180.583 1661.91,157.75 1660.5,135C 1686.83,134.5 1713.16,134.333 1739.5,134.5C 1740.29,147.888 1741.63,161.222 1743.5,174.5C 1773.47,134.676 1812.8,120.509 1861.5,132C 1886.48,139.071 1903.98,154.571 1914,178.5C 1948.49,133.337 1992.99,118.837 2047.5,135C 2074.68,148.187 2092.51,169.353 2101,198.5C 2104.63,212.446 2107.13,226.446 2108.5,240.5 Z"/></g>
<g><path style="opacity:0.979" fill="#3264af" d="M 1498.5,134.5 C 1529.5,134.5 1560.5,134.5 1591.5,134.5C 1591.5,232.5 1591.5,330.5 1591.5,428.5C 1560.5,428.5 1529.5,428.5 1498.5,428.5C 1498.5,330.5 1498.5,232.5 1498.5,134.5 Z"/></g>
<g><path style="opacity:0.907" fill="#3264af" d="M 306.5,495.5 C 317.855,496.549 322.022,502.549 319,513.5C 313.555,519.948 307.055,521.114 299.5,517C 294.756,511.622 294.256,505.789 298,499.5C 300.564,497.376 303.397,496.042 306.5,495.5 Z"/></g>
<g><path style="opacity:0.91" fill="#3264af" d="M 1518.5,495.5 C 1529.33,495.497 1533.83,500.83 1532,511.5C 1529.89,516.893 1525.89,519.56 1520,519.5C 1508.57,517.499 1505.24,511.166 1510,500.5C 1512.4,497.892 1515.23,496.225 1518.5,495.5 Z"/></g>
<g><path style="opacity:0.907" fill="#3264af" d="M 1924.5,495.5 C 1933.11,495.298 1937.78,499.465 1938.5,508C 1937.88,515.623 1933.71,519.456 1926,519.5C 1915.35,517.835 1911.68,511.835 1915,501.5C 1917.55,498.319 1920.72,496.319 1924.5,495.5 Z"/></g>
<g><path style="opacity:0.966" fill="#3264af" d="M 206.5,496.5 C 213.833,496.5 221.167,496.5 228.5,496.5C 228.5,530.167 228.5,563.833 228.5,597.5C 221.167,597.5 213.833,597.5 206.5,597.5C 206.5,563.833 206.5,530.167 206.5,496.5 Z"/></g>
<g><path style="opacity:0.966" fill="#3264af" d="M 1751.5,496.5 C 1758.83,496.5 1766.17,496.5 1773.5,496.5C 1773.5,530.167 1773.5,563.833 1773.5,597.5C 1766.17,597.5 1758.83,597.5 1751.5,597.5C 1751.5,563.833 1751.5,530.167 1751.5,496.5 Z"/></g>
<g><path style="opacity:0.941" fill="#3264af" d="M 1467.5,499.5 C 1475.73,499.879 1483.73,501.546 1491.5,504.5C 1491.83,505 1492.17,505.5 1492.5,506C 1490.92,511.144 1489.42,516.311 1488,521.5C 1487.44,522.022 1486.77,522.355 1486,522.5C 1477.42,518.592 1468.59,517.759 1459.5,520C 1454.86,522.072 1453.36,525.572 1455,530.5C 1456.87,532.709 1459.04,534.542 1461.5,536C 1467.91,538.472 1474.25,541.138 1480.5,544C 1493.87,551.421 1498.7,562.588 1495,577.5C 1492.05,586.904 1485.89,593.07 1476.5,596C 1461.23,600.608 1446.23,599.775 1431.5,593.5C 1431.17,592.667 1430.83,591.833 1430.5,591C 1431.48,585.232 1433.15,579.732 1435.5,574.5C 1446.86,581.038 1458.52,581.872 1470.5,577C 1474.56,571.791 1473.89,567.125 1468.5,563C 1461.37,559.287 1454.04,555.953 1446.5,553C 1430.77,543.132 1427.27,529.966 1436,513.5C 1444.55,504.268 1455.05,499.601 1467.5,499.5 Z"/></g>
<g><path style="opacity:0.944" fill="#3264af" d="M 9.5,501.5 C 19.4163,501.181 29.2496,501.514 39,502.5C 45.4478,523.291 51.1145,544.291 56,565.5C 61.2575,544.228 67.4241,523.228 74.5,502.5C 84.1437,501.502 93.8104,501.168 103.5,501.5C 105.656,533.459 107.322,565.459 108.5,597.5C 101.245,597.813 94.0787,597.48 87,596.5C 86.2472,573.151 85.2472,549.818 84,526.5C 77.318,549.565 70.4846,572.565 63.5,595.5C 57.2424,595.81 51.0758,595.476 45,594.5C 38.5407,572.663 32.7074,550.663 27.5,528.5C 26.2568,551.523 24.9234,574.523 23.5,597.5C 16.4921,597.666 9.49207,597.5 2.5,597C 4.85409,565.168 7.18743,533.334 9.5,501.5 Z"/></g>
<g><path style="opacity:0.944" fill="#3264af" d="M 403.5,501.5 C 413.19,501.168 422.856,501.502 432.5,502.5C 442.78,534.005 452.447,565.672 461.5,597.5C 453.5,597.5 445.5,597.5 437.5,597.5C 435.669,589.509 433.336,581.676 430.5,574C 421.506,573.5 412.506,573.334 403.5,573.5C 401.973,581.276 399.973,588.943 397.5,596.5C 389.862,597.497 382.196,597.831 374.5,597.5C 383.768,565.365 393.434,533.365 403.5,501.5 Z M 416.5,519.5 C 419.832,531.671 423.499,543.838 427.5,556C 420.808,556.831 414.142,556.664 407.5,555.5C 411.735,543.798 414.735,531.798 416.5,519.5 Z"/></g>
<g><path style="opacity:0.957" fill="#3264af" d="M 783.5,501.5 C 808.167,501.5 832.833,501.5 857.5,501.5C 857.5,507.833 857.5,514.167 857.5,520.5C 848.833,520.5 840.167,520.5 831.5,520.5C 831.5,546.167 831.5,571.833 831.5,597.5C 824.167,597.5 816.833,597.5 809.5,597.5C 809.5,571.833 809.5,546.167 809.5,520.5C 800.833,520.5 792.167,520.5 783.5,520.5C 783.5,514.167 783.5,507.833 783.5,501.5 Z"/></g>
<g><path style="opacity:0.938" fill="#3264af" d="M 268.5,508.5 C 269.49,514.645 269.823,520.978 269.5,527.5C 274.833,527.5 280.167,527.5 285.5,527.5C 285.5,533.167 285.5,538.833 285.5,544.5C 280.167,544.5 274.833,544.5 269.5,544.5C 269.097,555.231 269.597,565.898 271,576.5C 271.5,578.333 272.667,579.5 274.5,580C 277.817,580.498 281.15,580.665 284.5,580.5C 284.5,586.167 284.5,591.833 284.5,597.5C 276.028,599.625 267.695,599.458 259.5,597C 252.044,593.187 248.211,587.021 248,578.5C 247.5,567.172 247.333,555.838 247.5,544.5C 244.5,544.5 241.5,544.5 238.5,544.5C 238.5,538.833 238.5,533.167 238.5,527.5C 241.5,527.5 244.5,527.5 247.5,527.5C 247.5,523.167 247.5,518.833 247.5,514.5C 254.733,512.945 261.733,510.945 268.5,508.5 Z"/></g>
<g><path style="opacity:0.94" fill="#3264af" d="M 733.5,508.5 C 734.49,514.645 734.823,520.978 734.5,527.5C 739.833,527.5 745.167,527.5 750.5,527.5C 750.5,533.167 750.5,538.833 750.5,544.5C 745.167,544.5 739.833,544.5 734.5,544.5C 734.125,555.222 734.625,565.889 736,576.5C 736.5,578.333 737.667,579.5 739.5,580C 742.817,580.498 746.15,580.665 749.5,580.5C 749.5,586.167 749.5,591.833 749.5,597.5C 741.028,599.625 732.695,599.458 724.5,597C 716.36,592.321 712.527,585.154 713,575.5C 712.5,565.172 712.334,554.839 712.5,544.5C 709.5,544.5 706.5,544.5 703.5,544.5C 703.5,538.833 703.5,533.167 703.5,527.5C 706.5,527.5 709.5,527.5 712.5,527.5C 712.5,523.167 712.5,518.833 712.5,514.5C 719.733,512.945 726.733,510.945 733.5,508.5 Z"/></g>
<g><path style="opacity:0.939" fill="#3264af" d="M 1376.5,508.5 C 1377.49,514.645 1377.82,520.978 1377.5,527.5C 1382.83,527.5 1388.17,527.5 1393.5,527.5C 1393.5,533.167 1393.5,538.833 1393.5,544.5C 1388.17,544.5 1382.83,544.5 1377.5,544.5C 1377.13,555.222 1377.63,565.889 1379,576.5C 1379.5,578.333 1380.67,579.5 1382.5,580C 1385.82,580.498 1389.15,580.665 1392.5,580.5C 1392.5,586.167 1392.5,591.833 1392.5,597.5C 1384.03,599.625 1375.69,599.458 1367.5,597C 1359.57,592.628 1355.74,585.795 1356,576.5C 1355.5,565.839 1355.33,555.172 1355.5,544.5C 1352.5,544.5 1349.5,544.5 1346.5,544.5C 1346.5,538.833 1346.5,533.167 1346.5,527.5C 1349.5,527.5 1352.5,527.5 1355.5,527.5C 1355.5,523.167 1355.5,518.833 1355.5,514.5C 1362.73,512.945 1369.73,510.945 1376.5,508.5 Z"/></g>
<g><path style="opacity:0.941" fill="#3264af" d="M 1886.5,508.5 C 1887.12,508.611 1887.62,508.944 1888,509.5C 1888.5,515.491 1888.67,521.491 1888.5,527.5C 1893.5,527.5 1898.5,527.5 1903.5,527.5C 1903.5,533.167 1903.5,538.833 1903.5,544.5C 1898.5,544.5 1893.5,544.5 1888.5,544.5C 1888.33,554.839 1888.5,565.172 1889,575.5C 1889.57,577.492 1890.74,578.992 1892.5,580C 1895.82,580.498 1899.15,580.665 1902.5,580.5C 1902.5,586.167 1902.5,591.833 1902.5,597.5C 1895.15,599.192 1887.81,599.359 1880.5,598C 1872.87,595.595 1868.37,590.428 1867,582.5C 1866.5,569.838 1866.33,557.171 1866.5,544.5C 1863.17,544.5 1859.83,544.5 1856.5,544.5C 1856.5,538.833 1856.5,533.167 1856.5,527.5C 1859.83,527.5 1863.17,527.5 1866.5,527.5C 1866.17,523.116 1866.51,518.783 1867.5,514.5C 1873.99,512.634 1880.33,510.634 1886.5,508.5 Z"/></g>
<g><path style="opacity:0.943" fill="#3264af" d="M 584.5,525.5 C 605.488,527.496 616.155,539.162 616.5,560.5C 615.838,563.468 615.505,566.468 615.5,569.5C 600.833,569.5 586.167,569.5 571.5,569.5C 572.57,575.738 576.237,579.572 582.5,581C 590.618,582.278 598.784,581.778 607,579.5C 607.833,579.833 608.667,580.167 609.5,580.5C 610.562,584.644 611.562,588.81 612.5,593C 612.355,593.772 612.022,594.439 611.5,595C 600.057,598.31 588.39,599.31 576.5,598C 558.782,593.437 549.782,581.937 549.5,563.5C 550.252,540.425 561.919,527.758 584.5,525.5 Z M 579.5,541.5 C 588.893,540.188 594.226,544.188 595.5,553.5C 587.528,554.498 579.528,554.831 571.5,554.5C 571.891,548.709 574.558,544.376 579.5,541.5 Z"/></g>
<g><path style="opacity:0.942" fill="#3264af" d="M 509.5,626.5 C 501.833,626.5 494.167,626.5 486.5,626.5C 482.614,625.186 478.614,623.853 474.5,622.5C 474.167,621.667 473.833,620.833 473.5,620C 474.588,615.148 475.755,610.315 477,605.5C 477.414,605.043 477.914,604.709 478.5,604.5C 487.047,609.352 496.047,610.519 505.5,608C 513.012,604.144 516.179,597.977 515,589.5C 505.458,597.009 494.958,598.509 483.5,594C 474.855,589.002 469.688,581.502 468,571.5C 464.503,553.29 470.336,539.124 485.5,529C 494.193,525.708 502.859,525.708 511.5,529C 513.71,530.509 515.543,532.342 517,534.5C 517.977,532.26 518.477,529.927 518.5,527.5C 524.833,527.5 531.167,527.5 537.5,527.5C 537.667,549.503 537.5,571.503 537,593.5C 536.247,611.742 527.081,622.742 509.5,626.5 Z M 499.5,543.5 C 506.362,542.535 511.195,545.202 514,551.5C 514.667,558.5 514.667,565.5 514,572.5C 507.782,582.025 500.782,582.692 493,574.5C 488.333,566.167 488.333,557.833 493,549.5C 495.063,547.266 497.229,545.266 499.5,543.5 Z"/></g>
<g><path style="opacity:0.954" fill="#3264af" d="M 661.5,526.5 C 679.993,523.508 690.827,531.175 694,549.5C 694.5,565.497 694.667,581.497 694.5,597.5C 687.167,597.5 679.833,597.5 672.5,597.5C 672.896,582.456 672.396,567.456 671,552.5C 667.767,544.313 662.267,542.48 654.5,547C 653.333,548.833 652.167,550.667 651,552.5C 650.5,567.496 650.333,582.496 650.5,597.5C 643.167,597.5 635.833,597.5 628.5,597.5C 628.547,574.16 628.214,550.826 627.5,527.5C 634.167,527.5 640.833,527.5 647.5,527.5C 647.335,530.518 647.502,533.518 648,536.5C 650.167,534.333 652.333,532.167 654.5,530C 657.174,529.33 659.507,528.163 661.5,526.5 Z"/></g>
<g><path style="opacity:0.921" fill="#3264af" d="M 892.5,526.5 C 896.167,526.5 899.833,526.5 903.5,526.5C 903.5,533.5 903.5,540.5 903.5,547.5C 894.178,545.251 887.345,548.251 883,556.5C 882.5,570.163 882.333,583.829 882.5,597.5C 874.833,597.5 867.167,597.5 859.5,597.5C 859.5,574.167 859.5,550.833 859.5,527.5C 865.833,527.5 872.167,527.5 878.5,527.5C 878.564,531.22 879.064,534.886 880,538.5C 882.744,532.921 886.911,528.921 892.5,526.5 Z"/></g>
<g><path style="opacity:0.935" fill="#3264af" d="M 928.5,526.5 C 936.571,526.137 944.571,526.637 952.5,528C 963.83,532.135 969.663,540.302 970,552.5C 970.215,567.532 970.715,582.532 971.5,597.5C 964.5,597.5 957.5,597.5 950.5,597.5C 950.799,595.396 950.466,593.396 949.5,591.5C 938.372,600.497 926.705,601.33 914.5,594C 907.089,585.54 905.589,576.04 910,565.5C 915.494,557.829 922.994,553.329 932.5,552C 937.464,551.088 942.464,550.588 947.5,550.5C 947.451,547.901 946.451,545.734 944.5,544C 941.751,542.916 938.918,542.083 936,541.5C 928.97,542.466 922.136,544.133 915.5,546.5C 914.715,542.138 913.715,537.804 912.5,533.5C 912.833,532.833 913.167,532.167 913.5,531.5C 918.55,529.594 923.55,527.928 928.5,526.5 Z M 939.5,565.5 C 942.5,565.5 945.5,565.5 948.5,565.5C 949.993,578.009 944.659,583.342 932.5,581.5C 929.183,578.26 928.683,574.593 931,570.5C 933.682,568.415 936.516,566.748 939.5,565.5 Z"/></g>
<g><path style="opacity:0.954" fill="#3264af" d="M 1020.5,526.5 C 1037.6,523.949 1048.1,530.949 1052,547.5C 1052.5,564.163 1052.67,580.83 1052.5,597.5C 1045.17,597.5 1037.83,597.5 1030.5,597.5C 1030.67,583.829 1030.5,570.163 1030,556.5C 1029.31,546.117 1024.14,542.617 1014.5,546C 1011.53,548.1 1009.7,550.934 1009,554.5C 1008.5,568.829 1008.33,583.163 1008.5,597.5C 1001.17,597.5 993.833,597.5 986.5,597.5C 986.681,574.156 986.348,550.822 985.5,527.5C 992.167,527.5 998.833,527.5 1005.5,527.5C 1004.39,535.951 1006.39,537.118 1011.5,531C 1014.59,529.454 1017.59,527.954 1020.5,526.5 Z"/></g>
<g><path style="opacity:0.93" fill="#3264af" d="M 1086.5,526.5 C 1095.72,525.844 1104.72,526.844 1113.5,529.5C 1114.31,534.618 1113.65,539.618 1111.5,544.5C 1108.49,545.023 1105.49,544.523 1102.5,543C 1097.77,542.004 1093.27,542.504 1089,544.5C 1088.26,546.441 1088.42,548.274 1089.5,550C 1096.62,553.148 1103.62,556.481 1110.5,560C 1117.58,567.228 1119.42,575.728 1116,585.5C 1113.37,591.464 1108.87,595.297 1102.5,597C 1090.33,600.169 1078.33,599.502 1066.5,595C 1065.92,594.107 1065.59,593.107 1065.5,592C 1066.59,587.148 1067.75,582.315 1069,577.5C 1076.58,582.035 1084.74,583.535 1093.5,582C 1097.04,579.718 1097.37,577.051 1094.5,574C 1086.83,570.896 1079.5,567.229 1072.5,563C 1064.75,553.721 1064.59,544.221 1072,534.5C 1076.41,530.883 1081.24,528.217 1086.5,526.5 Z"/></g>
<g><path style="opacity:0.953" fill="#3264af" d="M 1164.5,526.5 C 1179.59,523.906 1190.76,529.24 1198,542.5C 1203.78,557.051 1203.12,571.384 1196,585.5C 1186.44,597.799 1174.27,601.633 1159.5,597C 1156.9,596.117 1154.73,594.617 1153,592.5C 1152.5,603.495 1152.33,614.495 1152.5,625.5C 1145.17,625.5 1137.83,625.5 1130.5,625.5C 1130.66,592.826 1130.33,560.159 1129.5,527.5C 1136.17,527.5 1142.83,527.5 1149.5,527.5C 1149.19,530.247 1149.52,532.914 1150.5,535.5C 1154.69,531.62 1159.36,528.62 1164.5,526.5 Z M 1164.5,543.5 C 1175.25,545.603 1180.25,552.27 1179.5,563.5C 1179.53,573.62 1174.7,579.62 1165,581.5C 1158.57,581.068 1154.57,577.735 1153,571.5C 1151.87,563.955 1152.54,556.621 1155,549.5C 1157.86,546.773 1161.02,544.773 1164.5,543.5 Z"/></g>
<g><path style="opacity:0.945" fill="#3264af" d="M 1238.5,526.5 C 1271.31,523.812 1286.15,538.812 1283,571.5C 1278,589.681 1266,599.015 1247,599.5C 1224.14,597.971 1211.97,585.805 1210.5,563C 1211.07,543.953 1220.4,531.786 1238.5,526.5 Z M 1244.5,542.5 C 1253.44,542.267 1258.6,546.6 1260,555.5C 1261.26,563.168 1260.26,570.501 1257,577.5C 1247.08,585.582 1239.75,583.582 1235,571.5C 1233.09,563.2 1234.09,555.2 1238,547.5C 1239.8,545.174 1241.97,543.508 1244.5,542.5 Z"/></g>
<g><path style="opacity:0.947" fill="#3264af" d="M 1328.5,526.5 C 1332.17,526.5 1335.83,526.5 1339.5,526.5C 1339.5,533.5 1339.5,540.5 1339.5,547.5C 1333.89,546.908 1328.56,547.741 1323.5,550C 1322.33,551.833 1321.17,553.667 1320,555.5C 1318.55,569.427 1318.05,583.427 1318.5,597.5C 1311.17,597.5 1303.83,597.5 1296.5,597.5C 1296.75,574.151 1296.41,550.818 1295.5,527.5C 1302.17,527.5 1308.83,527.5 1315.5,527.5C 1315.33,531.514 1315.5,535.514 1316,539.5C 1318.35,533.315 1322.52,528.982 1328.5,526.5 Z"/></g>
<g><path style="opacity:0.949" fill="#3264af" d="M 1580.5,526.5 C 1589.34,525.006 1597.17,527.006 1604,532.5C 1605,534.167 1606,535.833 1607,537.5C 1616.79,525.826 1628.63,523.326 1642.5,530C 1647.77,534.276 1650.94,539.776 1652,546.5C 1652.5,563.497 1652.67,580.497 1652.5,597.5C 1645.5,597.5 1638.5,597.5 1631.5,597.5C 1631.88,582.46 1631.38,567.46 1630,552.5C 1628.02,545.095 1623.52,542.928 1616.5,546C 1614.62,547.543 1613.12,549.376 1612,551.5C 1611.5,566.83 1611.33,582.163 1611.5,597.5C 1604.17,597.5 1596.83,597.5 1589.5,597.5C 1589.67,583.496 1589.5,569.496 1589,555.5C 1587.64,545.409 1582.48,542.575 1573.5,547C 1571.96,548.579 1570.79,550.413 1570,552.5C 1569.5,567.496 1569.33,582.496 1569.5,597.5C 1562.17,597.5 1554.83,597.5 1547.5,597.5C 1547.82,574.455 1547.49,551.455 1546.5,528.5C 1553.13,527.503 1559.8,527.17 1566.5,527.5C 1566.34,530.518 1566.5,533.518 1567,536.5C 1570.53,531.795 1575.03,528.462 1580.5,526.5 Z"/></g>
<g><path style="opacity:0.935" fill="#3264af" d="M 1806.5,526.5 C 1815.66,525.907 1824.66,526.74 1833.5,529C 1843.65,534.8 1848.49,543.633 1848,555.5C 1848.18,569.212 1848.68,582.878 1849.5,596.5C 1842.53,597.497 1835.53,597.83 1828.5,597.5C 1828.82,595.25 1828.32,593.25 1827,591.5C 1816.62,600.034 1805.46,601.201 1793.5,595C 1785.09,586.48 1783.26,576.647 1788,565.5C 1793.49,557.829 1800.99,553.329 1810.5,552C 1815.46,551.088 1820.46,550.588 1825.5,550.5C 1825.45,547.901 1824.45,545.734 1822.5,544C 1819.75,542.916 1816.92,542.083 1814,541.5C 1806.97,542.466 1800.14,544.133 1793.5,546.5C 1792.74,542.288 1791.74,538.121 1790.5,534C 1790.83,533.167 1791.17,532.333 1791.5,531.5C 1796.55,529.594 1801.55,527.928 1806.5,526.5 Z M 1817.5,565.5 C 1820.5,565.5 1823.5,565.5 1826.5,565.5C 1827.78,578.728 1822.12,583.895 1809.5,581C 1807.08,577.621 1806.91,574.121 1809,570.5C 1811.52,568.173 1814.36,566.507 1817.5,565.5 Z"/></g>
<g><path style="opacity:0.941" fill="#3264af" d="M 1977.5,526.5 C 2004.76,523.103 2019.76,534.936 2022.5,562C 2021.51,585.325 2009.34,597.825 1986,599.5C 1959.87,597.036 1947.87,582.703 1950,556.5C 1952.57,540.31 1961.74,530.31 1977.5,526.5 Z M 1982.5,542.5 C 1988.27,541.634 1992.77,543.634 1996,548.5C 2001.15,559.242 2000.48,569.575 1994,579.5C 1984.69,584.846 1978.02,582.512 1974,572.5C 1971.4,563.26 1972.57,554.593 1977.5,546.5C 1979.21,545.113 1980.88,543.779 1982.5,542.5 Z"/></g>
<g><path style="opacity:0.93" fill="#3264af" d="M 2068.5,526.5 C 2088.4,523.908 2099.24,532.575 2101,552.5C 2101.5,567.496 2101.67,582.496 2101.5,597.5C 2093.83,597.5 2086.17,597.5 2078.5,597.5C 2078.67,582.496 2078.5,567.496 2078,552.5C 2074.68,544.302 2069.18,542.469 2061.5,547C 2059.96,548.579 2058.79,550.413 2058,552.5C 2057.5,567.496 2057.33,582.496 2057.5,597.5C 2049.83,597.5 2042.17,597.5 2034.5,597.5C 2034.5,574.167 2034.5,550.833 2034.5,527.5C 2040.87,527.17 2047.2,527.504 2053.5,528.5C 2054.23,531.109 2054.73,533.776 2055,536.5C 2058.53,531.795 2063.03,528.462 2068.5,526.5 Z"/></g>
<g><path style="opacity:0.952" fill="#3264af" d="M 123.5,527.5 C 130.833,527.5 138.167,527.5 145.5,527.5C 145.145,542.536 145.645,557.536 147,572.5C 147.897,577.899 151.063,580.565 156.5,580.5C 161.709,580.139 165.209,577.472 167,572.5C 167.5,557.504 167.667,542.504 167.5,527.5C 174.833,527.5 182.167,527.5 189.5,527.5C 189.398,550.842 189.731,574.175 190.5,597.5C 183.833,597.5 177.167,597.5 170.5,597.5C 170.813,594.753 170.48,592.086 169.5,589.5C 160.411,598.68 149.745,601.18 137.5,597C 129.104,592.392 124.604,585.226 124,575.5C 123.5,559.503 123.333,543.503 123.5,527.5 Z"/></g>
<g><path style="opacity:0.96" fill="#3264af" d="M 296.5,527.5 C 303.833,527.5 311.167,527.5 318.5,527.5C 318.5,550.833 318.5,574.167 318.5,597.5C 311.167,597.5 303.833,597.5 296.5,597.5C 296.5,574.167 296.5,550.833 296.5,527.5 Z"/></g>
<g><path style="opacity:0.918" fill="#3264af" d="M 1508.5,527.5 C 1516.17,527.5 1523.83,527.5 1531.5,527.5C 1531.5,550.833 1531.5,574.167 1531.5,597.5C 1523.83,597.5 1516.17,597.5 1508.5,597.5C 1508.5,574.167 1508.5,550.833 1508.5,527.5 Z"/></g>
<g><path style="opacity:0.953" fill="#3264af" d="M 1668.5,527.5 C 1675.83,527.5 1683.17,527.5 1690.5,527.5C 1690.12,542.54 1690.62,557.54 1692,572.5C 1692.9,577.899 1696.06,580.565 1701.5,580.5C 1707.26,580.195 1710.76,577.195 1712,571.5C 1712.5,556.837 1712.67,542.17 1712.5,527.5C 1719.83,527.5 1727.17,527.5 1734.5,527.5C 1734.36,550.843 1734.7,574.176 1735.5,597.5C 1728.83,597.5 1722.17,597.5 1715.5,597.5C 1715.81,594.753 1715.48,592.086 1714.5,589.5C 1705.41,598.68 1694.74,601.18 1682.5,597C 1674.46,592.603 1669.96,585.77 1669,576.5C 1668.5,560.17 1668.33,543.837 1668.5,527.5 Z"/></g>
<g><path style="opacity:0.918" fill="#3264af" d="M 1914.5,527.5 C 1922.17,527.5 1929.83,527.5 1937.5,527.5C 1937.5,550.833 1937.5,574.167 1937.5,597.5C 1929.83,597.5 1922.17,597.5 1914.5,597.5C 1914.5,574.167 1914.5,550.833 1914.5,527.5 Z"/></g>
<g><path style="opacity:0.967" fill="#3263ae" d="M 330.5,552.5 C 343.167,552.5 355.833,552.5 368.5,552.5C 368.5,557.5 368.5,562.5 368.5,567.5C 355.833,567.5 343.167,567.5 330.5,567.5C 330.5,562.5 330.5,557.5 330.5,552.5 Z"/></g>
</svg>
